<mxfile host="app.diagrams.net" agent="Mozilla/5.0 (Windows NT 10.0; Win64; x64) AppleWebKit/537.36 (KHTML, like Gecko) Chrome/129.0.0.0 Safari/537.36 Edg/129.0.0.0" version="24.7.17">
  <diagram name="Страница — 2" id="0q6mIoEcmCPyqPkra50T">
    <mxGraphModel dx="2046" dy="483" grid="1" gridSize="10" guides="1" tooltips="1" connect="1" arrows="1" fold="1" page="1" pageScale="1" pageWidth="827" pageHeight="1169" math="0" shadow="0">
      <root>
        <mxCell id="0" />
        <mxCell id="1" parent="0" />
        <mxCell id="wNHb27B9vclzCKQEH3IK-2" value=":Client" style="shape=umlActor;verticalLabelPosition=bottom;verticalAlign=top;html=1;" parent="1" vertex="1">
          <mxGeometry x="-820" y="370" width="30" height="60" as="geometry" />
        </mxCell>
        <mxCell id="_t5-pWJcFY04jKzfFb4g-1" value="manager :Manager" style="html=1;whiteSpace=wrap;" parent="1" vertex="1">
          <mxGeometry x="-546" y="525" width="112" height="50" as="geometry" />
        </mxCell>
        <mxCell id="_t5-pWJcFY04jKzfFb4g-3" value="order :Order" style="html=1;whiteSpace=wrap;" parent="1" vertex="1">
          <mxGeometry x="-195" y="525" width="110" height="50" as="geometry" />
        </mxCell>
        <mxCell id="B7zEzv4v61B53q1r5K0_-4" value="courier :Courier" style="html=1;whiteSpace=wrap;" parent="1" vertex="1">
          <mxGeometry x="-538.5" y="660" width="97" height="50" as="geometry" />
        </mxCell>
        <mxCell id="ZzXgrsC5QhzHTzSANMyU-1" value="product :Product" style="html=1;whiteSpace=wrap;" parent="1" vertex="1">
          <mxGeometry x="-195" y="375" width="110" height="50" as="geometry" />
        </mxCell>
        <mxCell id="DWd8mfMv6q1Qf9I1w_5O-1" value="webShop :WebShop" style="html=1;whiteSpace=wrap;" parent="1" vertex="1">
          <mxGeometry x="-580" y="375" width="180" height="50" as="geometry" />
        </mxCell>
        <mxCell id="4Ie5XJ9p3E1SxJ_edpAU-9" value="&lt;span style=&quot;color: rgb(0, 0, 0); font-family: Helvetica; font-size: 11px; font-style: normal; font-variant-ligatures: normal; font-variant-caps: normal; font-weight: 400; letter-spacing: normal; orphans: 2; text-align: center; text-indent: 0px; text-transform: none; widows: 2; word-spacing: 0px; -webkit-text-stroke-width: 0px; white-space: nowrap; background-color: rgb(255, 255, 255); text-decoration-thickness: initial; text-decoration-style: initial; text-decoration-color: initial; display: inline !important; float: none;&quot;&gt;1: inputDeliveryDetailes(detailes)&lt;/span&gt;" style="text;whiteSpace=wrap;html=1;" vertex="1" parent="1">
          <mxGeometry x="-790" y="370" width="180" height="30" as="geometry" />
        </mxCell>
        <mxCell id="4Ie5XJ9p3E1SxJ_edpAU-10" value="" style="endArrow=none;html=1;rounded=0;entryX=0;entryY=0.5;entryDx=0;entryDy=0;" edge="1" parent="1" source="wNHb27B9vclzCKQEH3IK-2" target="DWd8mfMv6q1Qf9I1w_5O-1">
          <mxGeometry width="50" height="50" relative="1" as="geometry">
            <mxPoint x="-775" y="420" as="sourcePoint" />
            <mxPoint x="-625" y="320" as="targetPoint" />
          </mxGeometry>
        </mxCell>
        <mxCell id="4Ie5XJ9p3E1SxJ_edpAU-12" value="" style="endArrow=open;endFill=1;endSize=12;html=1;rounded=0;" edge="1" parent="1">
          <mxGeometry width="160" relative="1" as="geometry">
            <mxPoint x="-620" y="384.58" as="sourcePoint" />
            <mxPoint x="-590" y="384.58" as="targetPoint" />
          </mxGeometry>
        </mxCell>
        <mxCell id="4Ie5XJ9p3E1SxJ_edpAU-13" value="&lt;span style=&quot;color: rgb(0, 0, 0); font-family: Helvetica; font-size: 11px; font-style: normal; font-variant-ligatures: normal; font-variant-caps: normal; font-weight: 400; letter-spacing: normal; orphans: 2; text-align: center; text-indent: 0px; text-transform: none; widows: 2; word-spacing: 0px; -webkit-text-stroke-width: 0px; white-space: nowrap; background-color: rgb(255, 255, 255); text-decoration-thickness: initial; text-decoration-style: initial; text-decoration-color: initial; display: inline !important; float: none;&quot;&gt;2: chooseProduct(Product)&lt;/span&gt;" style="text;whiteSpace=wrap;html=1;" vertex="1" parent="1">
          <mxGeometry x="-390" y="370" width="160" height="30" as="geometry" />
        </mxCell>
        <mxCell id="4Ie5XJ9p3E1SxJ_edpAU-15" value="" style="endArrow=none;html=1;rounded=0;entryX=0;entryY=0.5;entryDx=0;entryDy=0;exitX=1;exitY=0.5;exitDx=0;exitDy=0;" edge="1" parent="1" source="DWd8mfMv6q1Qf9I1w_5O-1" target="ZzXgrsC5QhzHTzSANMyU-1">
          <mxGeometry width="50" height="50" relative="1" as="geometry">
            <mxPoint x="-430" y="490" as="sourcePoint" />
            <mxPoint x="-220" y="490" as="targetPoint" />
          </mxGeometry>
        </mxCell>
        <mxCell id="4Ie5XJ9p3E1SxJ_edpAU-17" value="" style="endArrow=open;endFill=1;endSize=12;html=1;rounded=0;" edge="1" parent="1">
          <mxGeometry width="160" relative="1" as="geometry">
            <mxPoint x="-250" y="384.65999999999997" as="sourcePoint" />
            <mxPoint x="-220" y="384.65999999999997" as="targetPoint" />
          </mxGeometry>
        </mxCell>
        <mxCell id="4Ie5XJ9p3E1SxJ_edpAU-18" value="&lt;span style=&quot;color: rgb(0, 0, 0); font-family: Helvetica; font-size: 11px; font-style: normal; font-variant-ligatures: normal; font-variant-caps: normal; font-weight: 400; letter-spacing: normal; orphans: 2; text-align: center; text-indent: 0px; text-transform: none; widows: 2; word-spacing: 0px; -webkit-text-stroke-width: 0px; white-space: nowrap; background-color: rgb(255, 255, 255); text-decoration-thickness: initial; text-decoration-style: initial; text-decoration-color: initial; display: inline !important; float: none;&quot;&gt;3: InStock=AmountCheck(amount)&lt;/span&gt;" style="text;whiteSpace=wrap;html=1;" vertex="1" parent="1">
          <mxGeometry x="-230" y="310" width="180" height="30" as="geometry" />
        </mxCell>
        <mxCell id="4Ie5XJ9p3E1SxJ_edpAU-19" value="" style="endArrow=none;html=1;rounded=0;exitX=0.091;exitY=0.001;exitDx=0;exitDy=0;entryX=0.908;entryY=-0.002;entryDx=0;entryDy=0;exitPerimeter=0;entryPerimeter=0;" edge="1" parent="1" source="ZzXgrsC5QhzHTzSANMyU-1" target="ZzXgrsC5QhzHTzSANMyU-1">
          <mxGeometry width="50" height="50" relative="1" as="geometry">
            <mxPoint x="-158.75" y="365" as="sourcePoint" />
            <mxPoint x="-104" y="350" as="targetPoint" />
            <Array as="points">
              <mxPoint x="-185" y="350" />
              <mxPoint x="-95" y="350" />
            </Array>
          </mxGeometry>
        </mxCell>
        <mxCell id="4Ie5XJ9p3E1SxJ_edpAU-20" value="" style="endArrow=open;endFill=1;endSize=12;html=1;rounded=0;" edge="1" parent="1">
          <mxGeometry width="160" relative="1" as="geometry">
            <mxPoint x="-155" y="339.99999999999994" as="sourcePoint" />
            <mxPoint x="-125" y="339.99999999999994" as="targetPoint" />
          </mxGeometry>
        </mxCell>
        <mxCell id="4Ie5XJ9p3E1SxJ_edpAU-21" value="&lt;span style=&quot;color: rgb(0, 0, 0); font-family: Helvetica; font-size: 11px; font-style: normal; font-variant-ligatures: normal; font-variant-caps: normal; font-weight: 400; letter-spacing: normal; orphans: 2; text-align: center; text-indent: 0px; text-transform: none; widows: 2; word-spacing: 0px; -webkit-text-stroke-width: 0px; white-space: nowrap; background-color: rgb(255, 255, 255); text-decoration-thickness: initial; text-decoration-style: initial; text-decoration-color: initial; display: inline !important; float: none;&quot;&gt;[InStock=true]&lt;/span&gt;&lt;div style=&quot;forced-color-adjust: none; color: rgb(0, 0, 0); font-family: Helvetica; font-size: 11px; font-style: normal; font-variant-ligatures: normal; font-variant-caps: normal; font-weight: 400; letter-spacing: normal; orphans: 2; text-align: center; text-indent: 0px; text-transform: none; widows: 2; word-spacing: 0px; -webkit-text-stroke-width: 0px; white-space: nowrap; text-decoration-thickness: initial; text-decoration-style: initial; text-decoration-color: initial;&quot;&gt;4: addToOrder(product)&amp;nbsp;&lt;/div&gt;" style="text;whiteSpace=wrap;html=1;" vertex="1" parent="1">
          <mxGeometry x="-120" y="450" width="120" height="50" as="geometry" />
        </mxCell>
        <mxCell id="4Ie5XJ9p3E1SxJ_edpAU-22" value="" style="endArrow=none;html=1;rounded=0;entryX=0.5;entryY=1;entryDx=0;entryDy=0;exitX=0.5;exitY=0;exitDx=0;exitDy=0;" edge="1" parent="1" source="_t5-pWJcFY04jKzfFb4g-3" target="ZzXgrsC5QhzHTzSANMyU-1">
          <mxGeometry width="50" height="50" relative="1" as="geometry">
            <mxPoint x="-315" y="620" as="sourcePoint" />
            <mxPoint x="-105" y="620" as="targetPoint" />
          </mxGeometry>
        </mxCell>
        <mxCell id="4Ie5XJ9p3E1SxJ_edpAU-23" value="" style="endArrow=open;endFill=1;endSize=12;html=1;rounded=0;" edge="1" parent="1">
          <mxGeometry width="160" relative="1" as="geometry">
            <mxPoint x="-130" y="459.99999999999994" as="sourcePoint" />
            <mxPoint x="-130" y="490" as="targetPoint" />
          </mxGeometry>
        </mxCell>
        <mxCell id="4Ie5XJ9p3E1SxJ_edpAU-24" value="&lt;span style=&quot;color: rgb(0, 0, 0); font-family: Helvetica; font-size: 11px; font-style: normal; font-variant-ligatures: normal; font-variant-caps: normal; font-weight: 400; letter-spacing: normal; orphans: 2; text-align: center; text-indent: 0px; text-transform: none; widows: 2; word-spacing: 0px; -webkit-text-stroke-width: 0px; white-space: nowrap; background-color: rgb(255, 255, 255); text-decoration-thickness: initial; text-decoration-style: initial; text-decoration-color: initial; display: inline !important; float: none;&quot;&gt;5: confirmOrder(order)&lt;/span&gt;" style="text;whiteSpace=wrap;html=1;" vertex="1" parent="1">
          <mxGeometry x="-360" y="520" width="120" height="25" as="geometry" />
        </mxCell>
        <mxCell id="4Ie5XJ9p3E1SxJ_edpAU-25" value="" style="endArrow=none;html=1;rounded=0;entryX=0;entryY=0.5;entryDx=0;entryDy=0;exitX=1;exitY=0.5;exitDx=0;exitDy=0;" edge="1" parent="1" source="_t5-pWJcFY04jKzfFb4g-1" target="_t5-pWJcFY04jKzfFb4g-3">
          <mxGeometry width="50" height="50" relative="1" as="geometry">
            <mxPoint x="-480" y="622" as="sourcePoint" />
            <mxPoint x="-480" y="547" as="targetPoint" />
          </mxGeometry>
        </mxCell>
        <mxCell id="4Ie5XJ9p3E1SxJ_edpAU-27" value="" style="endArrow=open;endFill=1;endSize=12;html=1;rounded=0;" edge="1" parent="1">
          <mxGeometry width="160" relative="1" as="geometry">
            <mxPoint x="-360" y="532.5999999999999" as="sourcePoint" />
            <mxPoint x="-390" y="532.3" as="targetPoint" />
          </mxGeometry>
        </mxCell>
        <mxCell id="4Ie5XJ9p3E1SxJ_edpAU-28" value="&lt;span style=&quot;color: rgb(0, 0, 0); font-family: Helvetica; font-size: 11px; font-style: normal; font-variant-ligatures: normal; font-variant-caps: normal; font-weight: 400; letter-spacing: normal; orphans: 2; text-align: center; text-indent: 0px; text-transform: none; widows: 2; word-spacing: 0px; -webkit-text-stroke-width: 0px; white-space: nowrap; background-color: rgb(255, 255, 255); text-decoration-thickness: initial; text-decoration-style: initial; text-decoration-color: initial; display: inline !important; float: none;&quot;&gt;6: orderStatus=OrderCheck(order, detailes)&lt;/span&gt;" style="text;whiteSpace=wrap;html=1;" vertex="1" parent="1">
          <mxGeometry x="-600" y="460" width="220" height="30" as="geometry" />
        </mxCell>
        <mxCell id="4Ie5XJ9p3E1SxJ_edpAU-29" value="" style="endArrow=none;html=1;rounded=0;entryX=0.845;entryY=-0.003;entryDx=0;entryDy=0;entryPerimeter=0;exitX=0.151;exitY=0.006;exitDx=0;exitDy=0;exitPerimeter=0;" edge="1" parent="1" source="_t5-pWJcFY04jKzfFb4g-1" target="_t5-pWJcFY04jKzfFb4g-1">
          <mxGeometry width="50" height="50" relative="1" as="geometry">
            <mxPoint x="-544" y="515" as="sourcePoint" />
            <mxPoint x="-454" y="515" as="targetPoint" />
            <Array as="points">
              <mxPoint x="-529" y="500" />
              <mxPoint x="-451" y="500" />
            </Array>
          </mxGeometry>
        </mxCell>
        <mxCell id="4Ie5XJ9p3E1SxJ_edpAU-30" value="" style="endArrow=open;endFill=1;endSize=12;html=1;rounded=0;" edge="1" parent="1">
          <mxGeometry width="160" relative="1" as="geometry">
            <mxPoint x="-476" y="490.2999999999999" as="sourcePoint" />
            <mxPoint x="-506" y="489.99999999999994" as="targetPoint" />
          </mxGeometry>
        </mxCell>
        <mxCell id="4Ie5XJ9p3E1SxJ_edpAU-31" value="&lt;span style=&quot;color: rgb(0, 0, 0); font-family: Helvetica; font-size: 11px; font-style: normal; font-variant-ligatures: normal; font-variant-caps: normal; font-weight: 400; letter-spacing: normal; orphans: 2; text-align: center; text-indent: 0px; text-transform: none; widows: 2; word-spacing: 0px; -webkit-text-stroke-width: 0px; white-space: nowrap; background-color: rgb(255, 255, 255); text-decoration-thickness: initial; text-decoration-style: initial; text-decoration-color: initial; display: inline !important; float: none;&quot;&gt;7: [orderStatus=true] sendDeliveryList(deliveryList)&lt;/span&gt;" style="text;whiteSpace=wrap;html=1;" vertex="1" parent="1">
          <mxGeometry x="-760" y="600" width="250" height="30" as="geometry" />
        </mxCell>
        <mxCell id="4Ie5XJ9p3E1SxJ_edpAU-32" value="&lt;span style=&quot;color: rgb(0, 0, 0); font-family: Helvetica; font-size: 11px; font-style: normal; font-variant-ligatures: normal; font-variant-caps: normal; font-weight: 400; letter-spacing: normal; orphans: 2; text-align: center; text-indent: 0px; text-transform: none; widows: 2; word-spacing: 0px; -webkit-text-stroke-width: 0px; white-space: nowrap; background-color: rgb(255, 255, 255); text-decoration-thickness: initial; text-decoration-style: initial; text-decoration-color: initial; display: inline !important; float: none;&quot;&gt;8: delivery(deliveryList)&lt;/span&gt;" style="text;whiteSpace=wrap;html=1;" vertex="1" parent="1">
          <mxGeometry x="-400" y="640" width="121.5" height="30" as="geometry" />
        </mxCell>
        <mxCell id="4Ie5XJ9p3E1SxJ_edpAU-33" value="" style="endArrow=none;html=1;rounded=0;exitX=0.5;exitY=0;exitDx=0;exitDy=0;entryX=0.5;entryY=1;entryDx=0;entryDy=0;" edge="1" parent="1" source="B7zEzv4v61B53q1r5K0_-4" target="_t5-pWJcFY04jKzfFb4g-1">
          <mxGeometry width="50" height="50" relative="1" as="geometry">
            <mxPoint x="-680" y="610" as="sourcePoint" />
            <mxPoint x="-400" y="670" as="targetPoint" />
          </mxGeometry>
        </mxCell>
        <mxCell id="4Ie5XJ9p3E1SxJ_edpAU-35" value="" style="endArrow=open;endFill=1;endSize=12;html=1;rounded=0;" edge="1" parent="1">
          <mxGeometry width="160" relative="1" as="geometry">
            <mxPoint x="-500" y="600" as="sourcePoint" />
            <mxPoint x="-500" y="630" as="targetPoint" />
          </mxGeometry>
        </mxCell>
        <mxCell id="4Ie5XJ9p3E1SxJ_edpAU-36" value="" style="endArrow=none;html=1;rounded=0;entryX=1.002;entryY=0.402;entryDx=0;entryDy=0;exitX=0.706;exitY=0.013;exitDx=0;exitDy=0;entryPerimeter=0;exitPerimeter=0;" edge="1" parent="1" source="B7zEzv4v61B53q1r5K0_-4" target="B7zEzv4v61B53q1r5K0_-4">
          <mxGeometry width="50" height="50" relative="1" as="geometry">
            <mxPoint x="-458" y="640" as="sourcePoint" />
            <mxPoint x="-380" y="640" as="targetPoint" />
            <Array as="points">
              <mxPoint x="-470" y="640" />
              <mxPoint x="-450" y="640" />
              <mxPoint x="-420" y="640" />
              <mxPoint x="-420" y="680" />
            </Array>
          </mxGeometry>
        </mxCell>
        <mxCell id="4Ie5XJ9p3E1SxJ_edpAU-37" value="" style="endArrow=open;endFill=1;endSize=12;html=1;rounded=0;" edge="1" parent="1">
          <mxGeometry width="160" relative="1" as="geometry">
            <mxPoint x="-410" y="640" as="sourcePoint" />
            <mxPoint x="-410" y="670" as="targetPoint" />
          </mxGeometry>
        </mxCell>
      </root>
    </mxGraphModel>
  </diagram>
</mxfile>
